<svg width="312" height="62" viewBox="0 0 312 62" fill="none" xmlns="http://www.w3.org/2000/svg">
<path d="M42.9056 51.6303C42.3332 49.9665 41.8246 48.4309 41.3159 46.8312C38.9631 39.9206 36.6739 33.01 34.3211 26.1634C34.1938 25.7795 34.2574 25.5875 34.4482 25.2675C36.1016 23.028 37.7549 20.8525 39.4081 18.613C39.4717 18.485 39.599 18.357 39.7261 18.165C39.8533 18.5489 39.9804 18.8689 40.1077 19.1888C43.9866 30.7705 47.8656 42.3521 51.8082 53.9338C52.6984 56.4292 51.1723 59.3087 47.9927 59.3087C46.9117 59.3087 45.8307 59.3087 44.7497 59.3087H9.83902H9.20312C9.3303 59.1167 9.39389 58.9887 9.45748 58.8607C11.1108 56.6212 12.8278 54.3177 14.481 52.0142C14.7354 51.6942 14.9897 51.5662 15.3713 51.5662C24.2738 51.5662 33.24 51.5662 42.1425 51.5662H42.9056V51.6303Z" fill="#D76B49"/>
<path d="M18.2311 9.59082C18.8034 11.2545 19.3121 12.7902 19.8208 14.3898C22.1736 21.3004 24.4629 28.211 26.8157 35.1216C26.9428 35.4416 26.8793 35.6975 26.625 36.0175C24.9716 38.257 23.3183 40.4965 21.6649 42.7361C21.6013 42.8641 21.4742 42.992 21.3469 43.12C21.2198 42.7361 21.0926 42.4161 20.9655 42.0962C17.15 30.3866 13.2711 18.805 9.32854 7.2233C8.50188 4.72781 9.96443 1.84839 13.2075 1.84839C14.2885 1.84839 15.3695 1.84839 16.4506 1.84839H51.3612H51.9971C51.87 2.04035 51.8064 2.16833 51.7428 2.2963C50.0895 4.53585 48.3725 6.83937 46.7192 9.07892C46.4649 9.39886 46.2105 9.52683 45.7654 9.52683C36.8628 9.52683 27.8967 9.52683 18.9941 9.52683H18.2311V9.59082Z" fill="#C22918"/>
<path d="M67.912 43.6167L84.292 18.4167H88.936L95.2 43.6167H90.556L85.3 20.8287H87.172L72.916 43.6167H67.912ZM74.32 37.7847L76.3 34.1127H89.872L90.484 37.7847H74.32ZM105.901 43.8687C104.293 43.8687 102.913 43.5327 101.761 42.8607C100.633 42.1647 99.8293 41.1687 99.3493 39.8727C98.8693 38.5527 98.8213 36.9447 99.2053 35.0487L101.329 24.3927H105.829L103.705 34.9407C103.417 36.5007 103.561 37.7247 104.137 38.6127C104.737 39.4767 105.817 39.9087 107.377 39.9087C108.985 39.9087 110.329 39.4527 111.409 38.5407C112.513 37.6287 113.245 36.2367 113.605 34.3647L115.621 24.3927H120.085L116.269 43.6167H111.985L113.065 38.1447L113.785 39.8727C112.873 41.2407 111.721 42.2487 110.329 42.8967C108.961 43.5447 107.485 43.8687 105.901 43.8687ZM129.361 43.8687C128.113 43.8687 127.033 43.6047 126.121 43.0767C125.233 42.5247 124.585 41.7567 124.177 40.7727C123.793 39.7647 123.733 38.5767 123.997 37.2087L127.417 20.1447H131.917L128.497 37.1727C128.353 38.0607 128.449 38.7807 128.785 39.3327C129.121 39.8847 129.757 40.1607 130.693 40.1607C131.125 40.1607 131.557 40.1007 131.989 39.9807C132.445 39.8367 132.853 39.6447 133.213 39.4047L134.005 42.7167C133.333 43.1487 132.589 43.4487 131.773 43.6167C130.957 43.7847 130.153 43.8687 129.361 43.8687ZM122.737 27.9927L123.421 24.3927H136.237L135.517 27.9927H122.737ZM146.396 43.8687C144.524 43.8687 142.88 43.5207 141.464 42.8247C140.072 42.1047 138.992 41.1207 138.224 39.8727C137.456 38.6007 137.072 37.1127 137.072 35.4087C137.072 33.2487 137.564 31.3287 138.548 29.6487C139.532 27.9447 140.876 26.6127 142.58 25.6527C144.308 24.6687 146.276 24.1767 148.484 24.1767C150.38 24.1767 152.024 24.5247 153.416 25.2207C154.832 25.8927 155.924 26.8647 156.692 28.1367C157.46 29.3847 157.844 30.8727 157.844 32.6007C157.844 34.7367 157.352 36.6567 156.368 38.3607C155.384 40.0647 154.028 41.4087 152.3 42.3927C150.596 43.3767 148.628 43.8687 146.396 43.8687ZM146.684 40.0167C147.98 40.0167 149.12 39.7167 150.104 39.1167C151.088 38.4927 151.868 37.6407 152.444 36.5607C153.02 35.4807 153.308 34.2327 153.308 32.8167C153.308 31.3287 152.864 30.1527 151.976 29.2887C151.088 28.4247 149.84 27.9927 148.232 27.9927C146.96 27.9927 145.82 28.3047 144.812 28.9287C143.828 29.5287 143.048 30.3687 142.472 31.4487C141.896 32.5287 141.608 33.7767 141.608 35.1927C141.608 36.7047 142.052 37.8927 142.94 38.7567C143.828 39.5967 145.076 40.0167 146.684 40.0167ZM160.527 43.6167L165.567 18.4167H175.287C178.335 18.4167 180.687 19.0887 182.343 20.4327C184.023 21.7767 184.863 23.6367 184.863 26.0127C184.863 28.1487 184.371 29.9967 183.387 31.5567C182.427 33.0927 181.047 34.2807 179.247 35.1207C177.447 35.9367 175.311 36.3447 172.839 36.3447H164.631L167.115 34.1127L165.207 43.6167H160.527ZM167.007 34.6527L165.351 32.3847H173.019C175.275 32.3847 177.027 31.8807 178.275 30.8727C179.523 29.8647 180.147 28.3887 180.147 26.4447C180.147 25.0767 179.679 24.0567 178.743 23.3847C177.831 22.7127 176.511 22.3767 174.783 22.3767H167.475L169.923 20.0367L167.007 34.6527ZM185.689 43.6167L189.505 24.3927H193.789L192.709 29.8647L192.313 28.2807C193.201 26.7207 194.329 25.6527 195.697 25.0767C197.065 24.4767 198.733 24.1767 200.701 24.1767L199.873 28.4607C199.681 28.4127 199.501 28.3887 199.333 28.3887C199.165 28.3647 198.973 28.3527 198.757 28.3527C197.005 28.3527 195.553 28.8207 194.401 29.7567C193.249 30.6687 192.481 32.1327 192.097 34.1487L190.189 43.6167H185.689ZM210.102 43.8687C208.182 43.8687 206.514 43.5207 205.098 42.8247C203.682 42.1047 202.578 41.1207 201.786 39.8727C201.018 38.6007 200.634 37.1127 200.634 35.4087C200.634 33.2247 201.114 31.2927 202.074 29.6127C203.034 27.9327 204.342 26.6127 205.998 25.6527C207.678 24.6687 209.586 24.1767 211.722 24.1767C213.522 24.1767 215.082 24.5127 216.402 25.1847C217.722 25.8567 218.742 26.8287 219.462 28.1007C220.206 29.3487 220.578 30.8487 220.578 32.6007C220.578 33.0567 220.554 33.5247 220.506 34.0047C220.458 34.4847 220.386 34.9287 220.29 35.3367H203.982L204.486 32.3487H218.166L216.33 33.3567C216.522 32.1327 216.438 31.1127 216.078 30.2967C215.718 29.4807 215.142 28.8567 214.35 28.4247C213.558 27.9927 212.61 27.7767 211.506 27.7767C210.186 27.7767 209.034 28.0887 208.05 28.7127C207.09 29.3127 206.346 30.1767 205.818 31.3047C205.29 32.4087 205.026 33.7047 205.026 35.1927C205.026 36.7527 205.47 37.9527 206.358 38.7927C207.27 39.6327 208.674 40.0527 210.57 40.0527C211.65 40.0527 212.682 39.8847 213.666 39.5487C214.65 39.1887 215.466 38.6967 216.114 38.0727L217.986 41.2047C216.978 42.0927 215.778 42.7647 214.386 43.2207C213.018 43.6527 211.59 43.8687 210.102 43.8687ZM223.779 35.4807L224.499 31.7367H234.399L233.643 35.4807H223.779ZM243.498 43.8687C241.818 43.8687 240.246 43.6647 238.782 43.2567C237.318 42.8487 236.19 42.3567 235.398 41.7807L237.27 38.3247C238.062 38.8767 239.046 39.3327 240.222 39.6927C241.422 40.0287 242.67 40.1967 243.966 40.1967C245.454 40.1967 246.546 39.9927 247.242 39.5847C247.962 39.1767 248.322 38.6127 248.322 37.8927C248.322 37.3647 248.07 36.9687 247.566 36.7047C247.062 36.4407 246.414 36.2247 245.622 36.0567C244.854 35.8887 244.014 35.7087 243.102 35.5167C242.214 35.3247 241.374 35.0607 240.582 34.7247C239.814 34.3887 239.178 33.8967 238.674 33.2487C238.17 32.6007 237.918 31.7367 237.918 30.6567C237.918 29.2887 238.302 28.1247 239.07 27.1647C239.838 26.2047 240.906 25.4727 242.274 24.9687C243.666 24.4407 245.262 24.1767 247.062 24.1767C248.358 24.1767 249.63 24.3207 250.878 24.6087C252.126 24.8967 253.158 25.3047 253.974 25.8327L252.318 29.2887C251.454 28.7367 250.518 28.3527 249.51 28.1367C248.526 27.9207 247.566 27.8127 246.63 27.8127C245.166 27.8127 244.074 28.0407 243.354 28.4967C242.658 28.9287 242.31 29.4807 242.31 30.1527C242.31 30.6807 242.562 31.0887 243.066 31.3767C243.57 31.6647 244.206 31.9047 244.974 32.0967C245.766 32.2647 246.606 32.4447 247.494 32.6367C248.406 32.8047 249.246 33.0567 250.014 33.3927C250.806 33.7287 251.454 34.2207 251.958 34.8687C252.462 35.4927 252.714 36.3327 252.714 37.3887C252.714 38.7807 252.318 39.9687 251.526 40.9527C250.758 41.9127 249.678 42.6447 248.286 43.1487C246.894 43.6287 245.298 43.8687 243.498 43.8687ZM264.114 43.8687C262.554 43.8687 261.126 43.5327 259.83 42.8607C258.558 42.1887 257.538 41.2287 256.77 39.9807C256.026 38.7087 255.654 37.1847 255.654 35.4087C255.654 33.7767 255.918 32.2767 256.446 30.9087C256.998 29.5407 257.766 28.3527 258.75 27.3447C259.734 26.3367 260.874 25.5567 262.17 25.0047C263.49 24.4527 264.93 24.1767 266.49 24.1767C268.098 24.1767 269.478 24.4647 270.63 25.0407C271.806 25.6167 272.694 26.4927 273.294 27.6687C273.894 28.8207 274.17 30.2607 274.122 31.9887C274.074 34.3647 273.642 36.4527 272.826 38.2527C272.01 40.0287 270.87 41.4087 269.406 42.3927C267.942 43.3767 266.178 43.8687 264.114 43.8687ZM265.266 40.0167C266.562 40.0167 267.702 39.7167 268.686 39.1167C269.67 38.4927 270.45 37.6407 271.026 36.5607C271.602 35.4807 271.89 34.2327 271.89 32.8167C271.89 31.3287 271.446 30.1527 270.558 29.2887C269.67 28.4247 268.422 27.9927 266.814 27.9927C265.542 27.9927 264.402 28.3047 263.394 28.9287C262.41 29.5287 261.63 30.3687 261.054 31.4487C260.478 32.5287 260.19 33.7767 260.19 35.1927C260.19 36.6807 260.634 37.8567 261.522 38.7207C262.41 39.5847 263.658 40.0167 265.266 40.0167ZM269.982 43.6167L270.846 39.2247L272.07 34.1127L272.682 28.9647L273.582 24.3927H278.082L274.266 43.6167H269.982ZM280.153 43.6167L285.481 16.9047H289.981L284.653 43.6167H280.153ZM300.208 43.8687C298.288 43.8687 296.62 43.5207 295.204 42.8247C293.788 42.1047 292.684 41.1207 291.892 39.8727C291.124 38.6007 290.74 37.1127 290.74 35.4087C290.74 33.2247 291.22 31.2927 292.18 29.6127C293.14 27.9327 294.448 26.6127 296.104 25.6527C297.784 24.6687 299.692 24.1767 301.828 24.1767C303.628 24.1767 305.188 24.5127 306.508 25.1847C307.828 25.8567 308.848 26.8287 309.568 28.1007C310.312 29.3487 310.684 30.8487 310.684 32.6007C310.684 33.0567 310.66 33.5247 310.612 34.0047C310.564 34.4847 310.492 34.9287 310.396 35.3367H294.088L294.592 32.3487H308.272L306.436 33.3567C306.628 32.1327 306.544 31.1127 306.184 30.2967C305.824 29.4807 305.248 28.8567 304.456 28.4247C303.664 27.9927 302.716 27.7767 301.612 27.7767C300.292 27.7767 299.14 28.0887 298.156 28.7127C297.196 29.3127 296.452 30.1767 295.924 31.3047C295.396 32.4087 295.132 33.7047 295.132 35.1927C295.132 36.7527 295.576 37.9527 296.464 38.7927C297.376 39.6327 298.78 40.0527 300.676 40.0527C301.756 40.0527 302.788 39.8847 303.772 39.5487C304.756 39.1887 305.572 38.6967 306.22 38.0727L308.092 41.2047C307.084 42.0927 305.884 42.7647 304.492 43.2207C303.124 43.6527 301.696 43.8687 300.208 43.8687Z" fill="#1A181C"/>
</svg>
