<svg width="214" height="42" viewBox="0 0 214 42" fill="none" xmlns="http://www.w3.org/2000/svg">
<g clip-path="url(#clip0_193_1488)">
<path d="M30.0331 35.7094C29.6325 34.5447 29.2765 33.4698 28.9203 32.35C27.2734 27.5126 25.6709 22.6751 24.024 17.8825C23.9349 17.6138 23.9794 17.4794 24.113 17.2554C25.2703 15.6878 26.4276 14.1649 27.5849 12.5972C27.6294 12.5077 27.7185 12.4181 27.8075 12.2837C27.8965 12.5524 27.9855 12.7764 28.0746 13.0004C30.7898 21.1075 33.5051 29.2146 36.2649 37.3218C36.8881 39.0686 35.8198 41.0842 33.5941 41.0842C32.8374 41.0842 32.0807 41.0842 31.324 41.0842H6.88653H6.44141C6.53043 40.9498 6.57494 40.8602 6.61945 40.7707C7.77679 39.203 8.97867 37.5905 10.1359 35.9781C10.314 35.7541 10.492 35.6645 10.7591 35.6645C16.9909 35.6645 23.2672 35.6645 29.499 35.6645H30.0331V35.7094Z" fill="#D76B49"/>
<path d="M12.7618 6.28176C13.1624 7.44633 13.5185 8.52134 13.8746 9.64105C15.5216 14.4785 17.124 19.3159 18.771 24.1533C18.86 24.3773 18.8155 24.5565 18.6375 24.7804C17.4801 26.3481 16.3228 27.9157 15.1654 29.4835C15.1209 29.573 15.0319 29.6626 14.9428 29.7522C14.8538 29.4835 14.7648 29.2595 14.6758 29.0355C12.005 20.8388 9.2898 12.7317 6.52998 4.6245C5.95131 2.87766 6.9751 0.862061 9.24522 0.862061C10.0019 0.862061 10.7587 0.862061 11.5154 0.862061H35.9529H36.398C36.309 0.996436 36.2645 1.08602 36.22 1.1756C35.0626 2.74328 33.8608 4.35575 32.7034 5.92343C32.5254 6.14739 32.3473 6.23697 32.0358 6.23697C25.804 6.23697 19.5277 6.23697 13.2959 6.23697H12.7618V6.28176Z" fill="#C22918"/>
<path d="M50.608 29.5L61.528 12.7H64.624L68.8 29.5H65.704L62.2 14.308H63.448L53.944 29.5H50.608ZM54.88 25.612L56.2 23.164H65.248L65.656 25.612H54.88ZM75.9342 29.668C74.8622 29.668 73.9422 29.444 73.1742 28.996C72.4222 28.532 71.8862 27.868 71.5662 27.004C71.2462 26.124 71.2142 25.052 71.4702 23.788L72.8862 16.684H75.8862L74.4702 23.716C74.2782 24.756 74.3742 25.572 74.7582 26.164C75.1582 26.74 75.8782 27.028 76.9182 27.028C77.9902 27.028 78.8862 26.724 79.6062 26.116C80.3422 25.508 80.8302 24.58 81.0702 23.332L82.4142 16.684H85.3902L82.8462 29.5H79.9902L80.7102 25.852L81.1902 27.004C80.5822 27.916 79.8142 28.588 78.8862 29.02C77.9742 29.452 76.9902 29.668 75.9342 29.668ZM91.5741 29.668C90.7421 29.668 90.0221 29.492 89.4141 29.14C88.8221 28.772 88.3901 28.26 88.1181 27.604C87.8621 26.932 87.8221 26.14 87.9981 25.228L90.2781 13.852H93.2781L90.9981 25.204C90.9021 25.796 90.9661 26.276 91.1901 26.644C91.4141 27.012 91.8381 27.196 92.4621 27.196C92.7501 27.196 93.0381 27.156 93.3261 27.076C93.6301 26.98 93.9021 26.852 94.1421 26.692L94.6701 28.9C94.2221 29.188 93.7261 29.388 93.1821 29.5C92.6381 29.612 92.1021 29.668 91.5741 29.668ZM87.1581 19.084L87.6141 16.684H96.1581L95.6781 19.084H87.1581ZM102.93 29.668C101.682 29.668 100.586 29.436 99.6424 28.972C98.7144 28.492 97.9944 27.836 97.4824 27.004C96.9704 26.156 96.7144 25.164 96.7144 24.028C96.7144 22.588 97.0424 21.308 97.6984 20.188C98.3544 19.052 99.2504 18.164 100.386 17.524C101.538 16.868 102.85 16.54 104.322 16.54C105.586 16.54 106.682 16.772 107.61 17.236C108.554 17.684 109.282 18.332 109.794 19.18C110.306 20.012 110.562 21.004 110.562 22.156C110.562 23.58 110.234 24.86 109.578 25.996C108.922 27.132 108.018 28.028 106.866 28.684C105.73 29.34 104.418 29.668 102.93 29.668ZM103.122 27.1C103.986 27.1 104.746 26.9 105.402 26.5C106.058 26.084 106.578 25.516 106.962 24.796C107.346 24.076 107.538 23.244 107.538 22.3C107.538 21.308 107.242 20.524 106.65 19.948C106.058 19.372 105.226 19.084 104.154 19.084C103.306 19.084 102.546 19.292 101.874 19.708C101.218 20.108 100.698 20.668 100.314 21.388C99.9304 22.108 99.7384 22.94 99.7384 23.884C99.7384 24.892 100.034 25.684 100.626 26.26C101.218 26.82 102.05 27.1 103.122 27.1ZM112.351 29.5L115.711 12.7H122.191C124.223 12.7 125.791 13.148 126.895 14.044C128.015 14.94 128.575 16.18 128.575 17.764C128.575 19.188 128.247 20.42 127.591 21.46C126.951 22.484 126.031 23.276 124.831 23.836C123.631 24.38 122.207 24.652 120.559 24.652H115.087L116.743 23.164L115.471 29.5H112.351ZM116.671 23.524L115.567 22.012H120.679C122.183 22.012 123.351 21.676 124.183 21.004C125.015 20.332 125.431 19.348 125.431 18.052C125.431 17.14 125.119 16.46 124.495 16.012C123.887 15.564 123.007 15.34 121.855 15.34H116.983L118.615 13.78L116.671 23.524ZM129.126 29.5L131.67 16.684H134.526L133.806 20.332L133.542 19.276C134.134 18.236 134.886 17.524 135.798 17.14C136.71 16.74 137.822 16.54 139.134 16.54L138.582 19.396C138.454 19.364 138.334 19.348 138.222 19.348C138.11 19.332 137.982 19.324 137.838 19.324C136.67 19.324 135.702 19.636 134.934 20.26C134.166 20.868 133.654 21.844 133.398 23.188L132.126 29.5H129.126ZM145.401 29.668C144.121 29.668 143.009 29.436 142.065 28.972C141.121 28.492 140.385 27.836 139.857 27.004C139.345 26.156 139.089 25.164 139.089 24.028C139.089 22.572 139.409 21.284 140.049 20.164C140.689 19.044 141.561 18.164 142.665 17.524C143.785 16.868 145.057 16.54 146.481 16.54C147.681 16.54 148.721 16.764 149.601 17.212C150.481 17.66 151.161 18.308 151.641 19.156C152.137 19.988 152.385 20.988 152.385 22.156C152.385 22.46 152.369 22.772 152.337 23.092C152.305 23.412 152.257 23.708 152.193 23.98H141.321L141.657 21.988H150.777L149.553 22.66C149.681 21.844 149.625 21.164 149.385 20.62C149.145 20.076 148.761 19.66 148.233 19.372C147.705 19.084 147.073 18.94 146.337 18.94C145.457 18.94 144.689 19.148 144.033 19.564C143.393 19.964 142.897 20.54 142.545 21.292C142.193 22.028 142.017 22.892 142.017 23.884C142.017 24.924 142.313 25.724 142.905 26.284C143.513 26.844 144.449 27.124 145.713 27.124C146.433 27.124 147.121 27.012 147.777 26.788C148.433 26.548 148.977 26.22 149.409 25.804L150.657 27.892C149.985 28.484 149.185 28.932 148.257 29.236C147.345 29.524 146.393 29.668 145.401 29.668ZM154.519 24.076L154.999 21.58H161.599L161.095 24.076H154.519ZM167.666 29.668C166.546 29.668 165.498 29.532 164.522 29.26C163.546 28.988 162.794 28.66 162.266 28.276L163.514 25.972C164.042 26.34 164.698 26.644 165.482 26.884C166.282 27.108 167.114 27.22 167.978 27.22C168.97 27.22 169.698 27.084 170.162 26.812C170.642 26.54 170.882 26.164 170.882 25.684C170.882 25.332 170.714 25.068 170.378 24.892C170.042 24.716 169.61 24.572 169.082 24.46C168.57 24.348 168.01 24.228 167.402 24.1C166.81 23.972 166.25 23.796 165.722 23.572C165.21 23.348 164.786 23.02 164.45 22.588C164.114 22.156 163.946 21.58 163.946 20.86C163.946 19.948 164.202 19.172 164.714 18.532C165.226 17.892 165.938 17.404 166.85 17.068C167.778 16.716 168.842 16.54 170.042 16.54C170.906 16.54 171.754 16.636 172.586 16.828C173.418 17.02 174.106 17.292 174.65 17.644L173.546 19.948C172.97 19.58 172.346 19.324 171.674 19.18C171.018 19.036 170.378 18.964 169.754 18.964C168.778 18.964 168.05 19.116 167.57 19.42C167.106 19.708 166.874 20.076 166.874 20.524C166.874 20.876 167.042 21.148 167.378 21.34C167.714 21.532 168.138 21.692 168.65 21.82C169.178 21.932 169.738 22.052 170.33 22.18C170.938 22.292 171.498 22.46 172.01 22.684C172.538 22.908 172.97 23.236 173.306 23.668C173.642 24.084 173.81 24.644 173.81 25.348C173.81 26.276 173.546 27.068 173.018 27.724C172.506 28.364 171.786 28.852 170.858 29.188C169.93 29.508 168.866 29.668 167.666 29.668ZM181.409 29.668C180.369 29.668 179.417 29.444 178.553 28.996C177.705 28.548 177.025 27.908 176.513 27.076C176.017 26.228 175.769 25.212 175.769 24.028C175.769 22.94 175.945 21.94 176.297 21.028C176.665 20.116 177.177 19.324 177.833 18.652C178.489 17.98 179.249 17.46 180.113 17.092C180.993 16.724 181.953 16.54 182.993 16.54C184.065 16.54 184.985 16.732 185.753 17.116C186.537 17.5 187.129 18.084 187.529 18.868C187.929 19.636 188.113 20.596 188.081 21.748C188.049 23.332 187.761 24.724 187.217 25.924C186.673 27.108 185.913 28.028 184.937 28.684C183.961 29.34 182.785 29.668 181.409 29.668ZM182.177 27.1C183.041 27.1 183.801 26.9 184.457 26.5C185.113 26.084 185.633 25.516 186.017 24.796C186.401 24.076 186.593 23.244 186.593 22.3C186.593 21.308 186.297 20.524 185.705 19.948C185.113 19.372 184.281 19.084 183.209 19.084C182.361 19.084 181.601 19.292 180.929 19.708C180.273 20.108 179.753 20.668 179.369 21.388C178.985 22.108 178.793 22.94 178.793 23.884C178.793 24.876 179.089 25.66 179.681 26.236C180.273 26.812 181.105 27.1 182.177 27.1ZM185.321 29.5L185.897 26.572L186.713 23.164L187.121 19.732L187.721 16.684H190.721L188.177 29.5H185.321ZM192.102 29.5L195.654 11.692H198.654L195.102 29.5H192.102ZM205.472 29.668C204.192 29.668 203.08 29.436 202.136 28.972C201.192 28.492 200.456 27.836 199.928 27.004C199.416 26.156 199.16 25.164 199.16 24.028C199.16 22.572 199.48 21.284 200.12 20.164C200.76 19.044 201.632 18.164 202.736 17.524C203.856 16.868 205.128 16.54 206.552 16.54C207.752 16.54 208.792 16.764 209.672 17.212C210.552 17.66 211.232 18.308 211.712 19.156C212.208 19.988 212.456 20.988 212.456 22.156C212.456 22.46 212.44 22.772 212.408 23.092C212.376 23.412 212.328 23.708 212.264 23.98H201.392L201.728 21.988H210.848L209.624 22.66C209.752 21.844 209.696 21.164 209.456 20.62C209.216 20.076 208.832 19.66 208.304 19.372C207.776 19.084 207.144 18.94 206.408 18.94C205.528 18.94 204.76 19.148 204.104 19.564C203.464 19.964 202.968 20.54 202.616 21.292C202.264 22.028 202.088 22.892 202.088 23.884C202.088 24.924 202.384 25.724 202.976 26.284C203.584 26.844 204.52 27.124 205.784 27.124C206.504 27.124 207.192 27.012 207.848 26.788C208.504 26.548 209.048 26.22 209.48 25.804L210.728 27.892C210.056 28.484 209.256 28.932 208.328 29.236C207.416 29.524 206.464 29.668 205.472 29.668Z" fill="#1A181C"/>
</g>
<defs>
<clipPath id="clip0_193_1488">
<rect width="214" height="42" fill="white"/>
</clipPath>
</defs>
</svg>
