<svg width="42" height="42" viewBox="0 0 42 42" fill="none" xmlns="http://www.w3.org/2000/svg">
<path d="M30.0331 35.7094C29.6325 34.5447 29.2765 33.4698 28.9203 32.35C27.2734 27.5126 25.6709 22.6751 24.024 17.8825C23.9349 17.6138 23.9794 17.4794 24.113 17.2554C25.2703 15.6878 26.4276 14.1649 27.5849 12.5972C27.6294 12.5077 27.7185 12.4181 27.8075 12.2837C27.8965 12.5524 27.9855 12.7764 28.0746 13.0004C30.7898 21.1075 33.5051 29.2146 36.2649 37.3218C36.8881 39.0686 35.8198 41.0842 33.5941 41.0842C32.8374 41.0842 32.0807 41.0842 31.324 41.0842H6.88653H6.44141C6.53043 40.9498 6.57494 40.8602 6.61945 40.7707C7.77679 39.203 8.97867 37.5905 10.1359 35.9781C10.314 35.7541 10.492 35.6645 10.7591 35.6645C16.9909 35.6645 23.2672 35.6645 29.499 35.6645H30.0331V35.7094Z" fill="#D76B49"/>
<path d="M12.7618 6.28176C13.1624 7.44633 13.5185 8.52134 13.8746 9.64105C15.5216 14.4785 17.124 19.3159 18.771 24.1533C18.86 24.3773 18.8155 24.5565 18.6375 24.7804C17.4801 26.3481 16.3228 27.9157 15.1654 29.4835C15.1209 29.573 15.0319 29.6626 14.9428 29.7522C14.8538 29.4835 14.7648 29.2595 14.6758 29.0355C12.005 20.8388 9.2898 12.7317 6.52998 4.6245C5.95131 2.87766 6.9751 0.862061 9.24522 0.862061C10.0019 0.862061 10.7587 0.862061 11.5154 0.862061H35.9529H36.398C36.309 0.996436 36.2645 1.08602 36.22 1.1756C35.0626 2.74328 33.8608 4.35575 32.7034 5.92343C32.5254 6.14739 32.3473 6.23697 32.0358 6.23697C25.804 6.23697 19.5277 6.23697 13.2959 6.23697H12.7618V6.28176Z" fill="#C22918"/>
</svg>
